# xmcd
#
# Track frame offsets: 
#        150
#        17523
#        34363
#        52126
#        69527
#        86650
#        102964
#        119369
#        138755
#        160029
#
# Disc length: 2436 seconds
#
# Revision: 1
# Processed by: cddbd v1.5.2PL0 Copyright (c) Steve Scherf et al.
# Submitted via: ExactAudioCopy v1.0b3
#
DISCID=8109820a
DTITLE=Roy Roberts - Scily Moon
DYEAR=2006
DGENRE=Blues
TTITLE0=Sicily Moon
TTITLE1=If You Can't Put It Out
TTITLE2=Turn That Thang Around
TTITLE3=Tonight Your Love Belongs To Me
TTITLE4=I'm Gonna Love You
TTITLE5=You Better Pack Up
TTITLE6=Soul On Fire
TTITLE7=Let Our Love Last Forever
TTITLE8=Baby
TTITLE9=Show Me What You Got
EXTD=
EXTT0=
EXTT1=
EXTT2=
EXTT3=
EXTT4=
EXTT5=
EXTT6=
EXTT7=
EXTT8=
EXTT9=
PLAYORDER=
